<?xml version="1.0" standalone="no"?>
<!DOCTYPE svg PUBLIC "-//W3C//DTD SVG 20010904//EN"
 "http://www.w3.org/TR/2001/REC-SVG-20010904/DTD/svg10.dtd">
<svg version="1.0" xmlns="http://www.w3.org/2000/svg"
 width="630.000000pt" height="630.000000pt" viewBox="0 0 630.000000 630.000000"
 preserveAspectRatio="xMidYMid meet">
<metadata>
Created by potrace 1.14, written by Peter Selinger 2001-2017
</metadata>
<g transform="translate(0.000000,630.000000) scale(0.100000,-0.100000)"
fill="#000000" stroke="none">
<path d="M0 3150 l0 -3150 3150 0 3150 0 0 3150 0 3150 -3150 0 -3150 0 0
-3150z m2966 2475 c-9 -44 -37 -78 -82 -100 l-37 -18 44 -14 c24 -8 52 -23 63
-33 18 -18 18 -19 -15 -36 l-34 -17 40 -14 c62 -20 85 -35 107 -66 25 -36 20
-41 -21 -21 -32 16 -95 23 -106 12 -4 -3 23 -57 60 -119 59 -103 132 -266 122
-275 -2 -2 -19 7 -37 21 -18 14 -35 23 -37 21 -2 -2 8 -21 22 -41 32 -48 55
-125 55 -188 l0 -48 -51 53 -50 53 4 -91 c4 -88 7 -98 70 -235 l65 -143 42 90
c79 170 89 200 96 283 6 72 5 81 -10 81 -9 0 -31 -20 -48 -45 -18 -25 -35 -45
-40 -45 -26 0 8 148 51 225 32 57 31 59 -23 22 l-29 -21 7 30 c12 46 81 189
137 281 28 47 49 87 46 89 -11 11 -77 5 -107 -9 -39 -20 -40 -20 -40 -8 0 26
55 72 106 88 l54 17 -30 19 c-16 10 -30 23 -30 27 0 11 82 50 106 50 13 0 6 7
-21 23 -51 29 -85 79 -85 127 0 20 3 40 6 43 4 4 22 -18 41 -48 49 -79 70 -87
185 -75 199 21 348 7 469 -44 41 -17 84 -60 98 -99 14 -37 14 -117 0 -173
l-11 -44 -42 45 c-55 58 -77 58 -146 -1 -48 -41 -57 -45 -89 -39 -19 4 -48 13
-64 22 -24 12 -34 12 -58 2 -60 -24 -129 -126 -129 -190 0 -32 81 -178 109
-199 16 -11 43 -20 61 -20 19 0 29 -4 25 -11 -11 -16 -52 -29 -100 -31 -25 0
-45 -4 -45 -8 0 -4 14 -38 31 -76 34 -74 39 -125 19 -174 -16 -38 -25 -38 -39
0 -5 17 -13 30 -16 30 -10 0 17 -327 31 -371 3 -13 18 -3 62 43 75 79 116 101
242 132 130 31 372 78 377 73 2 -2 -50 -53 -114 -112 -171 -158 -310 -291
-293 -280 21 13 336 258 595 464 328 261 363 298 414 438 l28 76 25 -34 c38
-50 55 -89 78 -172 27 -97 28 -171 5 -220 -38 -80 -154 -164 -420 -302 -285
-148 -441 -238 -650 -378 -104 -69 -265 -187 -265 -194 0 -2 3 -2 8 0 4 3 86
52 184 110 230 138 550 322 663 382 50 26 115 61 145 78 30 16 120 58 198 93
177 78 250 122 300 179 l39 45 7 -39 c3 -22 1 -63 -5 -90 -9 -43 -19 -58 -62
-95 -158 -133 -503 -371 -644 -444 -43 -22 -172 -72 -288 -112 -310 -106 -348
-121 -300 -114 22 4 102 19 178 34 75 15 137 25 137 21 -1 -12 -290 -216 -332
-235 -29 -12 -77 -20 -148 -24 -100 -5 -103 -6 -69 -17 20 -7 70 -16 111 -20
86 -8 132 7 218 70 l48 35 364 -2 363 -3 -220 -146 c-121 -81 -238 -152 -259
-159 -65 -21 -156 -5 -406 69 -129 39 -238 71 -242 71 -5 0 -8 -7 -8 -14 0
-10 47 -30 148 -61 81 -26 200 -63 264 -83 65 -20 118 -39 118 -42 0 -12 -89
-59 -139 -74 -66 -19 -229 -21 -382 -4 l-106 12 -35 -30 c-39 -32 -117 -126
-148 -177 -16 -26 -20 -50 -20 -124 0 -55 -4 -93 -10 -93 -5 0 -32 14 -58 30
-27 17 -52 30 -56 30 -3 0 -6 -87 -6 -194 l0 -193 142 -94 141 -94 -86 -3 -87
-3 -64 45 c-35 25 -66 43 -70 39 -12 -13 -6 -190 9 -248 9 -33 34 -104 55
-159 22 -54 40 -113 40 -131 0 -39 -52 -113 -161 -228 l-74 -78 -90 102 c-154
174 -157 186 -95 345 55 140 70 206 69 294 -1 117 -3 119 -77 65 l-63 -46 -85
3 -86 3 141 95 141 95 0 193 c0 105 -3 192 -7 192 -3 0 -30 -14 -60 -30 -29
-17 -55 -30 -57 -30 -2 0 -6 44 -8 98 -4 114 -12 131 -129 254 l-66 71 -89 -9
c-49 -5 -159 -9 -244 -9 l-155 0 -69 35 c-38 20 -71 40 -73 46 -2 5 52 27 119
47 328 102 408 130 408 143 0 8 -4 14 -8 14 -4 0 -113 -32 -242 -70 -263 -79
-342 -91 -415 -67 -45 16 -446 274 -460 297 -4 7 106 10 354 10 l361 0 49 -35
c87 -63 134 -78 215 -71 39 4 87 12 106 19 33 11 29 12 -65 18 -69 4 -114 12
-145 26 -40 18 -344 233 -338 238 2 2 68 -10 148 -26 197 -39 208 -40 190 -30
-8 5 -130 48 -270 96 -284 97 -370 137 -557 262 -165 110 -425 306 -457 343
-28 34 -42 102 -31 157 l7 37 21 -34 c26 -42 137 -114 253 -165 168 -75 362
-173 555 -283 186 -105 634 -368 692 -406 60 -40 22 -3 -65 62 -204 153 -484
324 -783 480 -411 213 -508 299 -490 435 16 122 54 230 100 285 l27 33 22 -63
c28 -85 69 -151 125 -206 57 -55 468 -384 820 -656 103 -80 57 -32 -167 176
-95 88 -171 162 -169 165 5 5 246 -42 368 -72 138 -34 164 -47 239 -124 l68
-69 12 61 c6 34 13 121 15 192 5 125 4 129 -11 96 -19 -41 -28 -32 -45 46 -11
50 -11 54 25 128 20 43 36 80 36 84 0 5 -23 9 -52 10 -30 1 -63 9 -78 19 l-25
17 25 3 c69 8 106 45 151 147 36 85 26 142 -41 219 -42 48 -80 62 -116 43 -75
-38 -110 -31 -178 35 -43 40 -71 36 -122 -17 l-43 -45 -11 38 c-19 70 -13 161
15 208 58 99 277 145 550 114 64 -8 97 -8 116 1 28 11 67 60 90 113 l13 28 9
-26 c5 -15 6 -42 3 -61z m1801 -488 c25 -72 25 -232 0 -304 -15 -42 -34 -67
-90 -119 -90 -82 -199 -164 -256 -194 -45 -22 -478 -113 -515 -108 -36 6 235
346 304 383 14 7 55 19 90 25 36 6 79 20 97 31 29 18 291 287 321 330 18 26
27 18 49 -44z m-3053 -104 c81 -87 165 -168 186 -181 21 -12 66 -27 101 -33
81 -13 120 -40 201 -137 75 -90 198 -254 198 -264 0 -14 -41 -8 -261 36 -124
24 -236 52 -263 65 -56 28 -199 138 -277 213 -68 66 -93 134 -92 248 0 89 30
210 51 210 5 0 75 -71 156 -157z m670 -206 l127 -188 -3 -150 -3 -151 -132
193 -133 194 0 154 c0 85 4 151 8 146 5 -6 66 -95 136 -198z m1541 -292 c-69
-101 -130 -187 -135 -190 -6 -4 -10 48 -10 139 l0 145 133 198 132 198 3 -153
3 -153 -126 -184z m-3007 -157 c15 -15 113 -78 217 -141 176 -105 465 -292
465 -301 0 -2 -8 -2 -17 0 -51 11 -375 57 -563 79 -118 14 -218 29 -222 33
-15 15 -25 93 -21 159 5 82 25 156 65 243 l31 65 9 -55 c6 -39 16 -63 36 -82z
m4543 57 c16 -36 36 -93 44 -128 26 -109 15 -266 -18 -267 -7 -1 -28 -3 -47
-5 -19 -2 -96 -11 -170 -20 -141 -17 -453 -61 -530 -75 -25 -5 -46 -7 -48 -5
-5 5 286 193 471 304 211 126 247 155 247 199 0 31 8 62 17 62 2 0 18 -29 34
-65z m-4236 -520 c357 -44 506 -73 593 -116 68 -33 237 -143 248 -161 8 -12
-396 -3 -590 13 -213 18 -390 77 -504 168 -49 39 -112 113 -112 133 0 4 17 6
38 3 20 -3 168 -21 327 -40z m4213 35 c-1 -5 -18 -29 -37 -52 -113 -141 -306
-223 -581 -247 -69 -5 -231 -13 -360 -17 -269 -7 -262 -11 -127 79 196 130
244 142 882 221 230 29 227 28 223 16z m-4391 -701 c82 -39 91 -51 611 -729
139 -181 199 -250 217 -250 5 0 32 -23 58 -50 49 -51 61 -55 137 -51 90 5 260
126 260 185 l0 28 -64 -36 c-35 -20 -67 -36 -70 -36 -3 0 -6 27 -6 61 l0 60
-30 -21 c-39 -27 -86 -41 -111 -32 -18 7 -18 9 11 37 38 36 38 58 -1 167 l-32
88 28 36 c40 53 129 114 281 194 137 73 193 91 217 71 8 -6 17 -41 20 -81 7
-84 24 -124 55 -128 14 -2 59 18 118 52 l94 55 0 -84 0 -83 -66 -43 c-97 -63
-96 -61 -93 -146 l2 -75 -54 -30 c-30 -17 -64 -37 -77 -44 l-22 -15 30 -32
c51 -54 45 -60 -81 -77 -114 -16 -260 -92 -378 -197 l-42 -38 56 -75 c31 -41
59 -76 63 -78 4 -1 32 16 62 39 40 30 58 51 65 78 8 28 16 37 37 39 22 3 34
-6 67 -48 59 -74 57 -77 -35 -95 -11 -3 -50 -27 -87 -55 -82 -62 -84 -78 -24
-164 163 -231 210 -291 231 -292 12 -1 31 -6 43 -12 28 -16 56 -78 48 -109
-15 -62 -101 -101 -150 -69 -38 25 -61 79 -47 110 10 22 0 36 -133 193 -79 94
-151 173 -160 177 -20 7 -24 6 -102 -57 -50 -38 -63 -54 -63 -76 0 -34 -17
-51 -50 -51 -29 0 -49 14 -74 50 -37 56 -7 110 60 110 24 0 44 11 78 43 l47
42 -18 33 c-33 59 -105 133 -172 177 -111 72 -140 110 -121 161 6 14 7 31 3
37 -3 7 -95 134 -203 282 -584 802 -540 734 -540 832 0 75 -2 74 107 22z
m4311 -26 c-2 -38 -12 -84 -21 -103 -10 -19 -177 -254 -372 -522 l-355 -488 7
-45 c5 -43 3 -49 -28 -81 -19 -19 -57 -49 -86 -65 -84 -48 -202 -187 -187
-221 12 -29 86 -78 119 -78 18 0 43 -8 55 -18 61 -49 -41 -178 -106 -134 -6 4
-14 23 -18 42 -5 27 -19 45 -63 80 -79 63 -81 64 -108 46 -22 -14 -50 -47
-233 -265 -43 -51 -61 -80 -56 -90 20 -44 -8 -104 -54 -122 -58 -22 -142 30
-142 89 0 53 54 109 100 104 13 -1 114 133 243 321 40 59 36 77 -30 129 -74
57 -78 59 -116 64 -72 11 -75 28 -16 97 52 61 84 64 98 9 8 -28 24 -47 62 -76
29 -21 58 -39 64 -40 7 0 38 33 69 74 l55 75 -37 34 c-50 45 -189 136 -254
166 -30 13 -87 29 -128 35 -124 17 -131 24 -83 80 30 36 35 29 -64 86 l-63 35
0 82 -1 82 -77 45 -77 46 -3 88 -3 88 58 -33 c32 -18 83 -46 112 -61 53 -27
56 -28 73 -11 12 12 22 47 29 103 7 47 16 91 22 98 19 25 69 11 195 -54 221
-115 322 -194 322 -253 0 -13 -11 -55 -25 -93 -33 -92 -32 -123 5 -158 28 -26
28 -28 10 -33 -28 -7 -82 9 -114 34 l-26 20 0 -60 c0 -34 -3 -61 -7 -61 -3 0
-35 16 -70 35 -62 35 -63 36 -63 13 0 -46 41 -89 140 -148 44 -27 69 -34 127
-38 l72 -5 54 52 c30 28 58 51 64 51 15 0 63 56 208 245 509 662 520 675 578
717 25 18 120 57 141 58 4 0 6 -30 4 -67z m-2388 -611 c0 -64 -4 -122 -8 -127
-8 -12 -205 -135 -216 -135 -3 0 -6 57 -6 128 l0 127 73 43 c40 23 89 53 108
66 18 13 37 22 42 19 4 -2 7 -57 7 -121z m485 54 l100 -63 3 -126 c1 -70 -1
-127 -5 -127 -4 0 -55 29 -113 64 l-105 64 -3 126 c-2 97 0 126 10 125 7 0 58
-28 113 -63z m-646 -725 c-56 -53 -106 -97 -110 -99 -5 -2 -9 29 -8 70 l1 73
106 96 107 97 3 -70 3 -70 -102 -97z m801 -38 l0 -74 -110 103 -110 103 0 73
0 74 110 -102 110 -103 0 -74z m-800 233 c-8 -8 -53 -46 -100 -85 l-84 -71
-85 0 c-99 0 -101 -7 34 99 l90 70 80 1 c68 0 77 -2 65 -14z m919 -63 c53 -42
100 -80 106 -85 5 -4 -29 -8 -77 -8 l-87 0 -95 81 c-53 45 -96 83 -96 85 0 2
34 4 76 4 l77 0 96 -77z m-789 -130 c-39 -95 -72 -213 -66 -236 3 -12 21 -41
39 -63 l35 -40 -44 -204 c-25 -113 -47 -212 -50 -220 -8 -23 -113 93 -146 162
-54 110 -61 224 -19 306 27 53 252 342 267 342 2 0 -5 -21 -16 -47z m490 -52
c142 -177 188 -246 200 -307 24 -113 -24 -250 -124 -359 -29 -33 -56 -58 -59
-55 -2 3 -25 103 -52 223 l-47 218 41 44 c23 25 41 53 41 62 0 10 -20 75 -44
146 -24 70 -42 127 -40 127 1 0 39 -45 84 -99z m-96 -421 c4 -30 16 -122 27
-205 15 -118 17 -160 9 -201 -6 -28 -58 -147 -116 -264 l-105 -214 -98 200
c-106 215 -131 277 -131 327 0 41 51 420 57 427 9 9 133 -134 150 -172 9 -21
19 -38 22 -38 3 0 18 24 34 53 37 70 128 173 137 155 4 -7 11 -38 14 -68z"/>
<path d="M2450 5480 l-45 -18 45 -21 c57 -26 67 -26 127 0 l48 21 -40 19 c-50
23 -78 23 -135 -1z m100 -19 c0 -12 -29 -19 -52 -13 -31 7 -19 22 17 22 19 0
35 -4 35 -9z"/>
<path d="M3715 5481 l-40 -19 36 -15 c65 -29 85 -30 136 -7 l48 22 -45 18
c-57 24 -85 24 -135 1z m105 -20 c0 -12 -29 -19 -52 -13 -31 7 -19 22 17 22
19 0 35 -4 35 -9z"/>
<path d="M3020 4211 c-163 -53 -274 -163 -315 -315 -28 -101 -18 -232 23 -319
59 -126 188 -233 309 -255 106 -19 92 14 -40 99 -98 63 -148 114 -184 187 -25
51 -28 67 -28 162 0 100 1 108 34 168 41 75 103 135 179 170 49 23 70 27 152
27 84 -1 102 -4 155 -30 173 -84 256 -277 195 -459 -27 -83 -96 -161 -189
-215 -142 -84 -162 -136 -39 -107 149 35 282 166 323 320 13 49 17 88 13 156
-5 80 -10 101 -44 168 -100 204 -337 310 -544 243z"/>
</g>
</svg>
